<svg height="512" viewBox="0 0 64 64" width="512" xmlns="http://www.w3.org/2000/svg"><g id="voice_recognition" data-name="voice recognition"><path d="m59 36a2.015 2.015 0 0 0 -2 2 2.006 2.006 0 0 0 2 2 2 2 0 0 0 0-4z" fill="#78b9eb"/><circle cx="32" cy="32" fill="#78b9eb" r="21"/><path d="m5 28a2 2 0 1 0 -1.41-3.41 1.955 1.955 0 0 0 -.59 1.41 2.006 2.006 0 0 0 2 2z" fill="#78b9eb"/><g fill="#1a6fb0"><path d="m4 4h7v-2h-8a1 1 0 0 0 -1 1v8h2z"/><path d="m61 2h-8v2h7v7h2v-8a1 1 0 0 0 -1-1z"/><path d="m4 53h-2v8a1 1 0 0 0 1 1h8v-2h-7z"/><path d="m60 60h-7v2h8a1 1 0 0 0 1-1v-8h-2z"/><path d="m2 31h2v2h-2z"/><path d="m60 31h2v2h-2z"/><path d="m5 29a3 3 0 1 0 -3-3 3 3 0 0 0 3 3zm0-4a1 1 0 1 1 -1 1 1 1 0 0 1 1-1z"/><path d="m59 35a3 3 0 1 0 3 3 3 3 0 0 0 -3-3zm0 4a1 1 0 1 1 1-1 1 1 0 0 1 -1 1z"/><path d="m56 27h6v2h-6z"/><path d="m56 23h2v2h-2z"/><path d="m60 23h2v2h-2z"/><path d="m2 35h6v2h-6z"/><path d="m2 39h2v2h-2z"/><path d="m6 39h2v2h-2z"/><path d="m53.975 33h4.025v-2h-4.025a22 22 0 0 0 -43.95 0h-4.025v2h4.025a22 22 0 0 0 43.95 0zm-21.975-21a20.008 20.008 0 0 1 19.949 19h-1.949a1 1 0 0 0 -.929.628l-3.019 7.549-4.12-11.514a1 1 0 0 0 -1.917.121l-2.861 12.9-4.175-25.844a1 1 0 0 0 -.96-.84 1.016 1.016 0 0 0 -1 .788l-4.031 18.552-3.015-13.557a1 1 0 0 0 -1.952-.005l-4.285 18.869-2.807-7.019a1 1 0 0 0 -.929-.628h-1.949a20.008 20.008 0 0 1 19.949-19zm0 40a20.008 20.008 0 0 1 -19.949-19h1.272l3.748 9.372a1.011 1.011 0 0 0 1.008.628 1 1 0 0 0 .9-.775l4.007-17.665 3.038 13.657a1 1 0 0 0 .976.783 1 1 0 0 0 .975-.788l3.871-17.834 4.167 25.782a1 1 0 0 0 .958.84h.029a1 1 0 0 0 .976-.784l3.241-14.616 3.842 10.737a1 1 0 0 0 1.87.035l3.748-9.372h1.272a20.008 20.008 0 0 1 -19.949 19z"/><path d="m5.134 16.545 1.732 1a29.222 29.222 0 0 1 10.634-10.653l-1-1.731a31.229 31.229 0 0 0 -11.366 11.384z"/><path d="m6.892 46.5-1.731 1a31.229 31.229 0 0 0 11.384 11.366l1-1.732a29.222 29.222 0 0 1 -10.653-10.634z"/><path d="m58.866 47.455-1.732-1a29.222 29.222 0 0 1 -10.634 10.653l1 1.731a31.229 31.229 0 0 0 11.366-11.384z"/><path d="m57.108 17.5 1.731-1a31.229 31.229 0 0 0 -11.384-11.366l-1 1.732a29.222 29.222 0 0 1 10.653 10.634z"/><path d="m7 6.586h2v2.828h-2z" transform="matrix(.707 -.707 .707 .707 -3.314 8)"/><path d="m6.586 55h2.828v2h-2.828z" transform="matrix(.707 -.707 .707 .707 -37.255 22.059)"/><path d="m55 54.586h2v2.828h-2z" transform="matrix(.707 -.707 .707 .707 -23.196 56)"/><path d="m54.586 7h2.828v2h-2.828z" transform="matrix(.707 -.707 .707 .707 10.745 41.941)"/></g></g></svg>