<?xml version="1.0" standalone="no"?>
<!DOCTYPE svg PUBLIC "-//W3C//DTD SVG 20010904//EN"
 "http://www.w3.org/TR/2001/REC-SVG-20010904/DTD/svg10.dtd">
<svg version="1.0" xmlns="http://www.w3.org/2000/svg"
 width="480.000000pt" height="480.000000pt" viewBox="0 0 480.000000 480.000000"
 preserveAspectRatio="xMidYMid meet">
<metadata>
Created by potrace 1.15, written by Peter Selinger 2001-2017
</metadata>
<g transform="translate(0.000000,480.000000) scale(0.100000,-0.100000)"
fill="#000000" stroke="none">
<path d="M779 2037 c-24 -13 -57 -43 -74 -66 l-30 -43 -3 -744 c-2 -726 -2
-745 18 -783 28 -55 84 -98 144 -111 35 -7 453 -10 1291 -8 l1240 3 41 22 c51
27 90 72 104 121 8 25 10 265 8 767 l-3 730 -29 42 c-18 27 -46 51 -79 68
l-51 25 -1266 0 -1267 0 -44 -23z m2589 -130 l22 -20 0 -713 c0 -819 8 -753
-93 -762 l-57 -4 -2 763 -3 764 55 -3 c38 -3 62 -10 78 -25z m-258 -567 l0
-590 -108 0 c-125 0 -152 -11 -152 -62 0 -59 19 -68 147 -68 l113 0 0 -105 0
-105 -1135 2 -1134 3 -23 23 -23 23 -3 682 c-2 375 0 697 3 715 3 18 15 42 26
53 19 19 43 19 1154 19 l1135 0 0 -590z"/>
<path d="M1045 1675 l-25 -24 0 -261 0 -261 25 -24 24 -25 264 0 c263 0 264 0
285 23 21 23 22 30 22 289 l0 267 -26 20 c-25 20 -39 21 -286 21 l-259 0 -24
-25z m305 -183 c0 -92 15 -116 71 -110 44 4 59 34 59 121 0 53 3 67 15 67 13
0 15 -27 15 -180 l0 -180 -105 0 -105 0 0 102 c0 116 -10 138 -66 138 -52 0
-64 -27 -64 -142 0 -59 -4 -98 -10 -98 -6 0 -10 67 -10 180 l0 180 100 0 100
0 0 -78z"/>
<path d="M980 730 c-25 -25 -26 -72 -2 -93 17 -15 59 -17 399 -17 355 0 381 1
396 18 23 25 21 68 -3 92 -19 19 -33 20 -395 20 -362 0 -376 -1 -395 -20z"/>
<path d="M2022 733 c-31 -28 -35 -56 -11 -86 l20 -27 288 0 c266 0 289 1 304
18 23 25 21 68 -3 92 -19 19 -33 20 -299 20 -251 0 -281 -2 -299 -17z"/>
</g>
</svg>
