<?xml version="1.0" standalone="no"?>
<!DOCTYPE svg PUBLIC "-//W3C//DTD SVG 20010904//EN"
 "http://www.w3.org/TR/2001/REC-SVG-20010904/DTD/svg10.dtd">
<svg version="1.0" xmlns="http://www.w3.org/2000/svg"
 width="480.000000pt" height="480.000000pt" viewBox="0 0 480.000000 480.000000"
 preserveAspectRatio="xMidYMid meet">

<g transform="translate(0.000000,480.000000) scale(0.100000,-0.100000)"
fill="#000000" stroke="none">
<path d="M2660 2650 c-20 -20 -20 -33 -20 -875 l0 -855 -198 0 c-256 0 -242 8
-242 -149 0 -113 1 -120 33 -182 21 -42 47 -75 75 -96 86 -65 62 -64 968 -61
l819 3 47 23 c64 32 104 75 128 139 20 52 20 78 20 1048 l0 994 -22 15 c-20
14 -113 16 -805 16 -770 0 -783 0 -803 -20z m1525 -1051 l0 -956 -28 -36 c-37
-49 -75 -67 -137 -67 -47 0 -55 4 -98 44 l-47 45 -3 113 c-1 62 -5 122 -7 134
-9 42 -29 44 -585 44 l-530 0 0 820 0 820 718 -2 717 -3 0 -956z m-425 -852
c0 -56 15 -138 35 -190 7 -17 -26 -17 -688 -15 l-696 3 -46 45 c-25 25 -50 60
-55 80 -11 40 -13 123 -3 133 3 4 332 7 730 7 l723 0 0 -63z"/>
<path d="M2952 2254 c-12 -8 -22 -26 -22 -39 0 -54 7 -55 472 -55 415 0 429 1
448 20 11 11 20 27 20 35 0 8 -9 24 -20 35 -19 19 -33 20 -448 20 -371 0 -431
-2 -450 -16z"/>
<path d="M2946 1974 c-24 -23 -20 -61 8 -79 21 -14 65 -15 321 -13 280 3 297
4 311 22 18 26 18 51 -2 70 -13 14 -56 16 -319 16 -263 0 -306 -2 -319 -16z"/>
<path d="M2946 1694 c-19 -18 -21 -55 -4 -72 9 -9 124 -12 454 -12 389 0 444
2 458 16 9 8 16 24 16 34 0 10 -7 26 -16 34 -14 14 -69 16 -454 16 -385 0
-440 -2 -454 -16z"/>
<path d="M2960 1427 c-30 -15 -38 -58 -15 -81 15 -14 63 -16 455 -16 l439 0
15 22 c24 33 19 56 -14 73 -25 13 -91 15 -442 15 -312 0 -419 -3 -438 -13z"/>
</g>
</svg>
