<svg height="512pt" viewBox="0 -21 512.00002 512" width="512pt" xmlns="http://www.w3.org/2000/svg"><path d="m128 238.933594h119.464844v34.132812h-119.464844zm0 0" fill="#bddbff"/><path d="m366.933594 59.734375v256h51.199218v-256zm0 0" fill="#bddbff"/><path d="m384 349.867188h17.066406l8.535156-34.132813h-34.132812zm0 0" fill="#bddbff"/><path d="m375.46875 8.535156h34.132812v51.199219h-34.132812zm0 0" fill="#bddbff"/><g fill="#3d9ae2"><path d="m486.398438 196.265625h-42.664063c-4.714844 0-8.535156 3.820313-8.535156 8.535156 0 4.710938 3.820312 8.53125 8.535156 8.53125h42.664063c4.714843 0 8.535156 3.820313 8.535156 8.535157v221.867187c0 4.710937-3.820313 8.53125-8.535156 8.53125h-460.796876c-4.714843 0-8.535156-3.820313-8.535156-8.53125v-221.867187c0-4.714844 3.820313-8.535157 8.535156-8.535157h315.730469c4.714844 0 8.535157-3.820312 8.535157-8.53125 0-4.714843-3.820313-8.535156-8.535157-8.535156h-315.730469c-14.140624 0-25.601562 11.460937-25.601562 25.601563v221.867187c0 14.136719 11.460938 25.601563 25.601562 25.601563h460.796876c14.140624 0 25.601562-11.464844 25.601562-25.601563v-221.867187c0-14.140626-11.460938-25.601563-25.601562-25.601563zm0 0"/><path d="m85.332031 238.933594c0-4.710938-3.820312-8.535156-8.53125-8.535156-4.714843 0-8.535156 3.824218-8.535156 8.535156v17.066406c0 4.714844 3.820313 8.535156 8.535156 8.535156 4.710938 0 8.53125-3.820312 8.53125-8.535156zm0 0"/><path d="m85.332031 281.601562c0-4.714843-3.820312-8.535156-8.53125-8.535156-4.714843 0-8.535156 3.820313-8.535156 8.535156v17.066407c0 4.710937 3.820313 8.53125 8.535156 8.53125 4.710938 0 8.53125-3.820313 8.53125-8.53125zm0 0"/><path d="m85.332031 324.265625c0-4.710937-3.820312-8.53125-8.53125-8.53125-4.714843 0-8.535156 3.820313-8.535156 8.53125v17.066406c0 4.714844 3.820313 8.535157 8.535156 8.535157 4.710938 0 8.53125-3.820313 8.53125-8.535157zm0 0"/><path d="m85.332031 366.933594c0-4.714844-3.820312-8.535156-8.53125-8.535156-4.714843 0-8.535156 3.820312-8.535156 8.535156v17.066406c0 4.714844 3.820313 8.535156 8.535156 8.535156 4.710938 0 8.53125-3.820312 8.53125-8.535156zm0 0"/><path d="m76.800781 401.066406c-4.714843 0-8.535156 3.820313-8.535156 8.535156v17.066407c0 4.710937 3.820313 8.53125 8.535156 8.53125 4.710938 0 8.53125-3.820313 8.53125-8.53125v-17.066407c0-4.714843-3.820312-8.535156-8.53125-8.535156zm0 0"/><path d="m247.46875 281.601562c4.710938 0 8.53125-3.820312 8.53125-8.535156v-34.132812c0-4.710938-3.820312-8.535156-8.53125-8.535156h-119.46875c-4.714844 0-8.535156 3.824218-8.535156 8.535156v34.132812c0 4.714844 3.820312 8.535156 8.535156 8.535156zm-110.9375-34.132812h102.402344v17.066406h-102.402344zm0 0"/><path d="m366.933594 324.265625h1.878906l6.910156 27.675781c.953125 3.796875 4.363282 6.457032 8.277344 6.457032v8.535156c0 4.710937 3.820312 8.535156 8.535156 8.535156 4.710938 0 8.53125-3.824219 8.53125-8.535156v-8.535156c3.914063 0 7.328125-2.660157 8.277344-6.457032l6.914062-27.675781h1.875c4.714844 0 8.535157-3.820313 8.535157-8.53125v-221.867187h8.53125v42.664062c0 4.714844 3.820312 8.535156 8.535156 8.535156 4.710937 0 8.53125-3.820312 8.53125-8.535156v-51.199219c0-4.710937-3.820313-8.53125-8.53125-8.53125h-17.066406v-17.066406c0-4.714844-3.820313-8.535156-8.535157-8.535156v-42.664063c0-4.714844-3.820312-8.535156-8.53125-8.535156h-34.132812c-4.714844 0-8.535156 3.820312-8.535156 8.535156v42.664063c-4.710938 0-8.53125 3.820312-8.53125 8.535156v256c-.003906 4.710937 3.816406 8.53125 8.53125 8.53125zm42.667968-17.066406h-34.132812v-238.933594h34.132812zm-15.199218 34.132812h-3.738282l-4.265624-17.066406h12.269531zm-10.402344-324.265625h17.066406v34.132813h-17.066406zm0 0"/><path d="m307.199219 392.535156c0 4.710938 3.820312 8.53125 8.535156 8.53125h85.332031c4.714844 0 8.535156-3.820312 8.535156-8.53125 0-4.714844-3.820312-8.535156-8.535156-8.535156h-85.332031c-4.714844 0-8.535156 3.820312-8.535156 8.535156zm0 0"/><path d="m315.734375 435.199219h136.53125c4.714844 0 8.535156-3.820313 8.535156-8.53125 0-4.714844-3.820312-8.535157-8.535156-8.535157h-136.53125c-4.714844 0-8.535156 3.820313-8.535156 8.535157 0 4.710937 3.820312 8.53125 8.535156 8.53125zm0 0"/><path d="m110.933594 324.265625c0 4.714844 3.820312 8.535156 8.53125 8.535156h204.800781c4.714844 0 8.535156-3.820312 8.535156-8.535156 0-4.710937-3.820312-8.53125-8.535156-8.53125h-204.800781c-4.710938 0-8.53125 3.820313-8.53125 8.53125zm0 0"/></g></svg>