<svg height="480pt" viewBox="0 0 480 480" width="480pt" xmlns="http://www.w3.org/2000/svg"><path d="m248 264c0 4.417969-3.582031 8-8 8s-8-3.582031-8-8 3.582031-8 8-8 8 3.582031 8 8zm0 0" fill="#bddbff"/><path d="m280 320h-80c-8.824219-.027344-15.972656-7.175781-16-16v-80h112v80c-.027344 8.824219-7.175781 15.972656-16 16zm-40-48c4.417969 0 8-3.582031 8-8s-3.582031-8-8-8-8 3.582031-8 8 3.582031 8 8 8zm0 0" fill="#bddbff"/><path d="m368 8v80l-24-24-24 24v-80zm0 0" fill="#bddbff"/><g fill="#3d9ae2"><path d="m104 48h64v16h-64zm0 0"/><path d="m104 80h64v16h-64zm0 0"/><path d="m232 277.777344v18.222656h16v-18.222656c6.273438-3.621094 9.328125-11.003906 7.453125-18-1.871094-6.992188-8.210937-11.859375-15.453125-11.859375s-13.582031 4.867187-15.453125 11.859375c-1.875 6.996094 1.179687 14.378906 7.453125 18zm0 0"/><path d="m432 184h-8v-144c-.027344-22.082031-17.917969-39.9726562-40-40h-288c-22.082031.0273438-39.972656 17.917969-40 40v144h-8c-26.507812 0-48 21.492188-48 48s21.492188 48 48 48h8v160c.027344 22.082031 17.917969 39.972656 40 40h288c22.082031-.027344 39.972656-17.917969 40-40v-160h8c26.507812 0 48-21.492188 48-48s-21.492188-48-48-48zm-104-168h32v52.6875l-10.34375-10.34375c-3.125-3.121094-8.1875-3.121094-11.3125 0l-10.34375 10.34375zm-232 0h216v72c0 3.234375 1.949219 6.152344 4.9375 7.390625s6.429688.550781 8.71875-1.734375l18.34375-18.34375 18.34375 18.34375c1.5 1.5 3.535156 2.34375 5.65625 2.34375 1.050781.003906 2.09375-.203125 3.0625-.609375 2.988281-1.238281 4.9375-4.15625 4.9375-7.390625v-72h8c13.253906 0 24 10.746094 24 24v224h-104v-40c0-4.417969-3.582031-8-8-8h-8v-24c-.027344-22.082031-17.917969-39.972656-40-40h-16c-22.082031.027344-39.972656 17.917969-40 40v24h-8c-4.417969 0-8 3.582031-8 8v40h-104v-224c0-13.253906 10.746094-24 24-24zm176 200h-64v-24c0-13.253906 10.746094-24 24-24h16c13.253906 0 24 10.746094 24 24zm16 16v72c0 4.417969-3.582031 8-8 8h-80c-4.417969 0-8-3.582031-8-8v-72zm-240 32c-17.671875 0-32-14.328125-32-32s14.328125-32 32-32h8v64zm360 176c0 13.253906-10.746094 24-24 24h-288c-13.253906 0-24-10.746094-24-24v-160h104v24c0 13.253906 10.746094 24 24 24h80c13.253906 0 24-10.746094 24-24v-24h104zm46.695312-185.367188c-6.023437 6.003907-14.1875 9.375-22.695312 9.367188h-8v-64h8c12.933594.015625 24.589844 7.808594 29.554688 19.753906 4.960937 11.945313 2.257812 25.699219-6.859376 34.878906zm0 0"/><path d="m224 360h32v16h-32zm0 0"/><path d="m272 360h32v16h-32zm0 0"/><path d="m176 360h32v16h-32zm0 0"/><path d="m176 392h128v16h-128zm0 0"/></g></svg>